<?xml version="1.0" encoding="utf-8"?>
<!-- Generator: Adobe Illustrator 26.0.1, SVG Export Plug-In . SVG Version: 6.00 Build 0)  -->
<svg version="1.1" id="Calque_1" xmlns="http://www.w3.org/2000/svg" xmlns:xlink="http://www.w3.org/1999/xlink" x="0px" y="0px"
	 viewBox="0 0 248.445 94.659" style="enable-background:new 0 0 248.445 94.659;" xml:space="preserve">
<style type="text/css">
	.st0{fill-rule:evenodd;clip-rule:evenodd;fill:none;}
	.st1{fill-rule:evenodd;clip-rule:evenodd;}
	.st2{fill-rule:evenodd;clip-rule:evenodd;fill:#325EA8;}
	.st3{fill-rule:evenodd;clip-rule:evenodd;fill:#FFFFFF;}
</style>
<g>
	<g>
		<rect class="st0" width="248.445" height="94.659"/>
	</g>
</g>
<g>
	<g>
		<g>
			<path d="M102.981,70.616V57.507h-0.1c-0.466,0.426-2.188,0.465-2.92,0.465h-1.268v0.105c1.465,0.896,1.264,2.225,1.264,3.877
				l0.004,5.547c0,2.775-2.727,4.723-4.922,4.723c-2.893,0-4.096-2.057-4.096-5.369v-9.348h-0.098
				c-0.467,0.426-2.201,0.465-2.933,0.465h-1.255v0.105c1.465,0.896,1.264,2.225,1.264,3.877v5.529c0,5.062,2.195,7.469,6.121,7.469
				c2.327,0,4.719-0.826,5.918-2.803v2.395h4.284v-0.109C102.784,73.608,102.981,72.272,102.981,70.616z"/>
			<path d="M109.626,63.606c0.401-2.254,2.064-3.684,4.295-3.684c2.396,0,3.926,1.18,4.291,3.684H109.626z M121.708,65.694
				c0.132-4.627-2.963-8.121-7.488-8.121c-4.959,0-8.318,3.6-8.318,8.592c0,5.027,3.891,8.857,9.549,8.857
				c1.564,0,3.162-0.25,4.594-0.891l1.664-3.375h-0.1c-1.531,1.301-3.46,1.92-5.459,1.92c-3.76,0-6.588-2.57-6.654-6.982H121.708z"
				/>
			<path d="M124.349,49.888c0.797,0,2.422-0.049,2.914-0.533h0.1v22.707c0.895,0.25,1.818,0.43,2.742,0.43
				c3.639,0,5.721-2.543,5.721-6.09c0-3.473-1.621-6.16-4.959-6.16c-1.059,0-1.885,0.285-2.777,0.789l1.787-3.059
				c0.758-0.289,1.553-0.398,2.346-0.398c3.771,0,6.977,3.277,6.977,8.185c0,5.621-3.803,9.256-9.82,9.256
				c-2.246,0-4.406-0.396-6.036-0.646v-0.109c1.098-0.506,0.998-1.695,0.998-2.879V54.874c0-1.656,0.199-3.977-1.23-4.877v-0.109
				H124.349z"/>
			<path d="M145.107,63.606c0.398-2.254,2.064-3.684,4.291-3.684c2.396,0,3.928,1.18,4.295,3.684H145.107z M157.185,65.694
				c0.135-4.627-2.961-8.121-7.488-8.121c-4.955,0-8.314,3.6-8.314,8.592c0,5.027,3.891,8.857,9.547,8.857
				c1.564,0,3.162-0.25,4.592-0.891l1.664-3.375h-0.098c-1.533,1.301-3.463,1.92-5.459,1.92c-3.76,0-6.586-2.57-6.654-6.982H157.185
				z"/>
			<path d="M172.07,61.69h-0.1c-0.967-1.191-2.564-1.768-4.062-1.768c-3.227,0-5.555,2.449-5.555,5.871
				c0,4.145,3.229,6.883,6.92,6.883c1.697,0,3.561-0.721,4.859-1.768h0.102l-1.732,3.402c-1.398,0.57-2.928,0.711-4.395,0.711
				c-5.123,0-9.129-3.607-9.129-8.291c0-6.193,4.473-9.158,9.496-9.158c1.199,0,2.43,0.145,3.596,0.43V61.69z"/>
			<path class="st1" d="M117.556,54.603c0-1.674,0-3.604,0-3.604c-2.182,0.98-4.206,2.809-5.558,4.588v1.402
				C115.233,54.808,117.556,54.704,117.556,54.603z"/>
			<path d="M72.966,72.546c-5.025,0-8.521-5.67-8.521-10.486c0-0.049,0-0.496,0.002-0.541c0.061-4.666,3.08-9.043,8.353-9.043
				c5.546,0,8.407,5.25,8.453,10.217c0,0.043,0,0.479,0,0.52C81.252,68.511,77.958,72.546,72.966,72.546z M90.188,78.056
				c-3.709,0.607-7.277-0.562-11.066-4.896c3.661-1.84,5.926-6.416,5.926-10.668c0-0.045-0.002-0.484-0.002-0.529
				c-0.065-7.275-5.531-12.08-12.049-12.08c-6.528,0-12.297,5.002-12.347,12.336c0,0.031,0,0.457,0,0.488
				c0,7.137,5.293,12.432,11.78,12.432c0.934,0,1.832-0.145,2.731-0.359c4.25,3.984,8.041,5.676,11.311,5.281
				c1.554-0.186,3.196-0.801,4.181-2.084L90.188,78.056z"/>
		</g>
	</g>
	<g>
		<g>
			<path d="M29.687,20.437l-0.647,1.985c-0.676-0.422-1.45-0.634-2.323-0.634c-1.173,0-2.091,0.336-2.752,1.007
				c-0.662,0.671-0.993,1.593-0.993,2.767c0,0.798,0.268,1.422,0.802,1.873c0.507,0.422,1.169,0.634,1.985,0.634
				c0.751,0,1.53-0.202,2.337-0.605l-0.253,2.253c-0.948,0.244-1.84,0.366-2.675,0.366c-1.492,0-2.67-0.389-3.534-1.168
				c-0.901-0.807-1.352-1.948-1.352-3.421c0-1.746,0.586-3.135,1.76-4.168c1.117-0.976,2.558-1.464,4.322-1.464
				C27.397,19.86,28.504,20.052,29.687,20.437z"/>
			<path d="M29.532,22.619h2.52c0.122,0.808,0.249,1.615,0.38,2.422c0.141,0.958,0.234,1.774,0.282,2.45
				c0.3-0.713,0.699-1.535,1.197-2.464c0.432-0.807,0.868-1.609,1.31-2.408h2.633l-4.646,7.716
				c-0.488,0.808-0.939,1.375-1.352,1.704c-0.544,0.432-1.225,0.647-2.042,0.647c-0.545,0-1.188-0.122-1.929-0.366l0.591-1.76
				c0.375,0.169,0.728,0.253,1.056,0.253c0.835,0,1.375-0.301,1.619-0.901L29.532,22.619z"/>
			<path d="M39.571,20.085h2.506l-0.76,3.45c0.676-0.751,1.479-1.126,2.408-1.126c0.91,0,1.619,0.319,2.126,0.958
				c0.46,0.591,0.69,1.352,0.69,2.281c0,1.23-0.324,2.253-0.971,3.069c-0.714,0.892-1.667,1.338-2.858,1.338
				c-1.146,0-1.995-0.554-2.548-1.662l-0.352,1.464h-2.281L39.571,20.085z M43.95,25.745c0-0.413-0.108-0.758-0.324-1.035
				s-0.526-0.416-0.929-0.416c-0.554,0-1.019,0.263-1.394,0.789c-0.338,0.469-0.507,0.995-0.507,1.577
				c0,0.441,0.117,0.808,0.352,1.098c0.234,0.292,0.563,0.437,0.986,0.437c0.563,0,1.018-0.276,1.366-0.831
				C43.8,26.876,43.95,26.336,43.95,25.745z"/>
			<path d="M54.82,26.886h-5.196c0.094,1.042,0.713,1.562,1.858,1.562c0.808,0,1.629-0.183,2.464-0.549l-0.282,1.788
				c-0.873,0.272-1.765,0.408-2.675,0.408c-1.089,0-1.957-0.291-2.604-0.873c-0.686-0.61-1.028-1.45-1.028-2.52
				c0-1.314,0.432-2.37,1.295-3.168c0.826-0.77,1.901-1.155,3.225-1.155c0.995,0,1.762,0.272,2.302,0.817
				c0.54,0.544,0.81,1.314,0.81,2.309C54.989,25.919,54.932,26.379,54.82,26.886z M52.891,25.492
				c0.019-0.141,0.028-0.253,0.028-0.338c0-0.395-0.113-0.711-0.338-0.951c-0.226-0.239-0.535-0.359-0.929-0.359
				c-0.432,0-0.803,0.174-1.113,0.521c-0.272,0.291-0.469,0.667-0.591,1.126H52.891z"/>
			<path d="M62.423,22.577l-0.563,2.112c-0.469-0.131-0.835-0.197-1.098-0.197c-0.61,0-1.08,0.23-1.408,0.69
				c-0.234,0.329-0.427,0.845-0.577,1.548L58.1,29.856h-2.534l1.478-7.265h2.295l-0.268,1.323c0.694-0.995,1.492-1.492,2.394-1.492
				C61.747,22.422,62.066,22.474,62.423,22.577z"/>
			<path d="M68.66,22.845l-0.549,1.591c-0.816-0.272-1.455-0.408-1.915-0.408c-0.751,0-1.126,0.221-1.126,0.662
				c0,0.244,0.258,0.47,0.774,0.676c0.779,0.31,1.253,0.521,1.422,0.634c0.516,0.347,0.774,0.821,0.774,1.422
				c0,0.883-0.366,1.559-1.098,2.028c-0.62,0.404-1.394,0.605-2.323,0.605c-1.023,0-1.985-0.155-2.886-0.465l0.521-1.746
				c0.666,0.329,1.342,0.493,2.027,0.493c0.845,0,1.267-0.216,1.267-0.648c0-0.281-0.249-0.53-0.746-0.746
				c-0.77-0.329-1.23-0.549-1.38-0.662c-0.498-0.357-0.746-0.854-0.746-1.493c0-0.807,0.389-1.427,1.168-1.858
				c0.638-0.347,1.394-0.521,2.267-0.521C66.881,22.408,67.731,22.554,68.66,22.845z"/>
			<path d="M76.644,26.886h-5.196c0.094,1.042,0.713,1.562,1.859,1.562c0.807,0,1.628-0.183,2.464-0.549l-0.282,1.788
				c-0.873,0.272-1.765,0.408-2.675,0.408c-1.089,0-1.957-0.291-2.604-0.873c-0.686-0.61-1.028-1.45-1.028-2.52
				c0-1.314,0.432-2.37,1.295-3.168c0.826-0.77,1.9-1.155,3.224-1.155c0.995,0,1.762,0.272,2.302,0.817
				c0.54,0.544,0.81,1.314,0.81,2.309C76.812,25.919,76.756,26.379,76.644,26.886z M74.714,25.492
				c0.019-0.141,0.028-0.253,0.028-0.338c0-0.395-0.113-0.711-0.338-0.951c-0.226-0.239-0.535-0.359-0.929-0.359
				c-0.432,0-0.803,0.174-1.112,0.521c-0.272,0.291-0.47,0.667-0.591,1.126H74.714z M72.292,21.451l1.352-1.858h2.633v0.31
				l-2.323,1.718h-1.662V21.451z"/>
			<path d="M84.613,22.887l-0.578,1.746c-0.535-0.253-1.051-0.38-1.549-0.38c-0.647,0-1.183,0.188-1.605,0.563
				s-0.634,0.882-0.634,1.521c0,0.554,0.171,0.988,0.514,1.302c0.343,0.315,0.795,0.472,1.359,0.472c0.45,0,0.929-0.112,1.436-0.338
				l-0.296,1.915c-0.76,0.197-1.45,0.296-2.07,0.296c-1.061,0-1.924-0.3-2.59-0.901c-0.667-0.601-1-1.422-1-2.464
				c0-1.305,0.446-2.342,1.338-3.112c0.845-0.732,1.929-1.098,3.252-1.098C83.017,22.408,83.824,22.568,84.613,22.887z"/>
			<path d="M85.654,22.619h2.534c-0.169,0.723-0.343,1.45-0.521,2.183c-0.216,0.938-0.324,1.662-0.324,2.168
				c0,0.723,0.319,1.084,0.958,1.084c0.967,0,1.619-0.793,1.957-2.379l0.648-3.056h2.534l-1.549,7.237h-2.267l0.281-1.225
				c-0.826,0.939-1.746,1.408-2.759,1.408c-0.77,0-1.357-0.226-1.76-0.676c-0.404-0.451-0.605-1.065-0.605-1.845
				c0-0.666,0.103-1.492,0.31-2.478C85.279,24.234,85.466,23.427,85.654,22.619z"/>
			<path d="M100.565,22.577l-0.563,2.112c-0.469-0.131-0.835-0.197-1.098-0.197c-0.61,0-1.08,0.23-1.408,0.69
				c-0.235,0.329-0.427,0.845-0.578,1.548l-0.676,3.126h-2.534l1.479-7.265h2.295l-0.268,1.323c0.694-0.995,1.493-1.492,2.394-1.492
				C99.889,22.422,100.208,22.474,100.565,22.577z"/>
			<path d="M101.789,22.605h2.464l-1.577,7.251h-2.464L101.789,22.605z M102.297,20.085h2.478l-0.253,1.295h-2.464L102.297,20.085z"
				/>
			<path d="M109.717,20.198l-0.521,2.421h1.788l-0.366,1.732h-1.788c-0.131,0.524-0.263,1.043-0.394,1.557
				c-0.16,0.646-0.239,1.174-0.239,1.585c0,0.496,0.263,0.744,0.788,0.744c0.216,0,0.493-0.042,0.831-0.127l-0.366,1.719
				c-0.601,0.103-1.065,0.154-1.394,0.154c-0.723,0-1.291-0.183-1.704-0.548c-0.441-0.384-0.662-0.932-0.662-1.644
				c0-0.468,0.08-1.044,0.239-1.727c0.131-0.571,0.268-1.143,0.408-1.714h-1.479l0.366-1.732h1.479l0.366-1.718L109.717,20.198z"/>
			<path d="M118.559,26.886h-5.195c0.094,1.042,0.713,1.562,1.858,1.562c0.807,0,1.628-0.183,2.464-0.549l-0.281,1.788
				c-0.873,0.272-1.765,0.408-2.675,0.408c-1.089,0-1.957-0.291-2.605-0.873c-0.685-0.61-1.028-1.45-1.028-2.52
				c0-1.314,0.432-2.37,1.295-3.168c0.826-0.77,1.901-1.155,3.225-1.155c0.995,0,1.762,0.272,2.302,0.817s0.81,1.314,0.81,2.309
				C118.727,25.919,118.671,26.379,118.559,26.886z M116.63,25.492c0.019-0.141,0.028-0.253,0.028-0.338
				c0-0.395-0.112-0.711-0.338-0.951c-0.225-0.239-0.535-0.359-0.929-0.359c-0.432,0-0.802,0.174-1.112,0.521
				c-0.272,0.291-0.469,0.667-0.591,1.126H116.63z M114.208,21.451l1.352-1.858h2.633v0.31l-2.323,1.718h-1.662V21.451z"/>
			<path d="M27.533,40.965h-5.196c0.094,1.042,0.713,1.563,1.858,1.563c0.808,0,1.628-0.183,2.464-0.549l-0.282,1.788
				c-0.873,0.272-1.765,0.408-2.675,0.408c-1.089,0-1.957-0.291-2.604-0.873c-0.686-0.61-1.028-1.45-1.028-2.52
				c0-1.314,0.432-2.37,1.295-3.168c0.826-0.77,1.901-1.155,3.225-1.155c0.995,0,1.762,0.272,2.302,0.816
				c0.54,0.545,0.81,1.314,0.81,2.31C27.702,39.999,27.645,40.458,27.533,40.965z M25.604,39.572
				c0.019-0.141,0.028-0.253,0.028-0.338c0-0.395-0.113-0.711-0.338-0.951c-0.226-0.239-0.535-0.359-0.93-0.359
				c-0.432,0-0.802,0.174-1.112,0.521c-0.272,0.291-0.469,0.667-0.591,1.126H25.604z"/>
			<path d="M33.376,34.277l-0.521,2.422h1.788l-0.366,1.732h-1.788c-0.132,0.524-0.263,1.043-0.395,1.557
				c-0.16,0.646-0.239,1.174-0.239,1.585c0,0.496,0.263,0.744,0.789,0.744c0.216,0,0.493-0.042,0.831-0.127l-0.366,1.719
				c-0.601,0.103-1.065,0.154-1.394,0.154c-0.723,0-1.291-0.183-1.704-0.548c-0.441-0.383-0.662-0.931-0.662-1.643
				c0-0.468,0.08-1.044,0.239-1.728c0.131-0.571,0.268-1.142,0.409-1.713h-1.479l0.366-1.732h1.478l0.366-1.718L33.376,34.277z"/>
			<path d="M42.401,36.896c-0.132,0.985-0.338,2.164-0.62,3.534c-0.263,1.164-0.521,2.333-0.774,3.506h-2.394l2.083-9.771h3.21
				c0.375,1.136,0.746,2.267,1.112,3.393c0.488,1.53,0.784,2.731,0.887,3.604l1.492-6.998h2.379l-2.083,9.771h-3.21L42.401,36.896z"
				/>
			<path d="M50.905,36.699h2.535c-0.169,0.723-0.343,1.45-0.521,2.183c-0.216,0.938-0.324,1.661-0.324,2.168
				c0,0.723,0.319,1.084,0.957,1.084c0.967,0,1.62-0.793,1.958-2.379l0.647-3.056h2.535l-1.549,7.237h-2.267l0.282-1.225
				c-0.826,0.939-1.746,1.408-2.76,1.408c-0.77,0-1.356-0.226-1.76-0.676c-0.403-0.451-0.605-1.065-0.605-1.845
				c0-0.667,0.103-1.493,0.31-2.478C50.53,38.314,50.718,37.507,50.905,36.699z"/>
			<path d="M70.589,43.936h-2.408c0.178-0.751,0.356-1.507,0.535-2.267c0.235-0.995,0.352-1.75,0.352-2.267
				c0-0.573-0.253-0.859-0.76-0.859c-0.526,0-0.92,0.277-1.183,0.831c-0.113,0.235-0.249,0.737-0.408,1.506l-0.648,3.056h-2.563
				c0.188-0.76,0.375-1.525,0.563-2.295c0.216-0.948,0.324-1.723,0.324-2.323c0-0.516-0.253-0.774-0.76-0.774
				c-0.723,0-1.211,0.596-1.464,1.788l-0.774,3.604h-2.562l1.549-7.308h2.168l-0.281,1.324c0.797-0.958,1.642-1.437,2.534-1.437
				c1.023,0,1.685,0.474,1.985,1.422c0.77-0.948,1.633-1.422,2.591-1.422c0.685,0,1.225,0.207,1.619,0.62
				c0.394,0.413,0.591,0.967,0.591,1.662c0,0.638-0.127,1.502-0.38,2.591C71.002,42.233,70.795,43.082,70.589,43.936z"/>
			<path d="M80.135,40.965H74.94c0.094,1.042,0.713,1.563,1.858,1.563c0.807,0,1.628-0.183,2.464-0.549l-0.281,1.788
				c-0.873,0.272-1.765,0.408-2.675,0.408c-1.089,0-1.957-0.291-2.605-0.873c-0.685-0.61-1.028-1.45-1.028-2.52
				c0-1.314,0.432-2.37,1.295-3.168c0.826-0.77,1.901-1.155,3.224-1.155c0.995,0,1.762,0.272,2.302,0.816
				c0.54,0.545,0.81,1.314,0.81,2.31C80.304,39.999,80.248,40.458,80.135,40.965z M78.206,39.572
				c0.019-0.141,0.028-0.253,0.028-0.338c0-0.395-0.112-0.711-0.338-0.951c-0.225-0.239-0.535-0.359-0.929-0.359
				c-0.432,0-0.803,0.174-1.112,0.521c-0.272,0.291-0.47,0.667-0.591,1.126H78.206z M75.785,35.531l1.352-1.858h2.633v0.31
				L77.446,35.7h-1.661V35.531z"/>
			<path d="M87.738,36.657l-0.563,2.112c-0.47-0.131-0.835-0.197-1.098-0.197c-0.61,0-1.08,0.23-1.408,0.69
				c-0.235,0.329-0.427,0.845-0.577,1.549l-0.676,3.126h-2.535l1.479-7.265h2.295l-0.268,1.323c0.695-0.995,1.493-1.492,2.394-1.492
				C87.062,36.502,87.381,36.554,87.738,36.657z"/>
			<path d="M88.963,36.685h2.464l-1.577,7.251h-2.464L88.963,36.685z M89.47,34.165h2.478l-0.253,1.295h-2.464L89.47,34.165z"/>
			<path d="M98.847,36.699h2.295l-2.141,9.913H96.51l0.845-3.59c-0.667,0.751-1.469,1.126-2.408,1.126
				c-0.911,0-1.619-0.314-2.126-0.943c-0.47-0.591-0.704-1.352-0.704-2.281c0-1.229,0.328-2.257,0.985-3.083
				c0.704-0.892,1.657-1.337,2.858-1.337c1.136,0,1.985,0.554,2.548,1.661L98.847,36.699z M97.876,39.853
				c0-0.413-0.122-0.765-0.366-1.056s-0.573-0.437-0.986-0.437c-0.572,0-1.028,0.286-1.366,0.859
				c-0.291,0.479-0.437,1.023-0.437,1.633c0,0.394,0.11,0.728,0.331,1c0.221,0.272,0.523,0.408,0.908,0.408
				c0.572,0,1.046-0.268,1.422-0.802C97.711,40.989,97.876,40.454,97.876,39.853z"/>
			<path d="M102.691,36.699h2.535c-0.169,0.723-0.343,1.45-0.521,2.183c-0.216,0.938-0.324,1.661-0.324,2.168
				c0,0.723,0.319,1.084,0.958,1.084c0.966,0,1.619-0.793,1.957-2.379l0.647-3.056h2.535l-1.549,7.237h-2.267l0.282-1.225
				c-0.826,0.939-1.746,1.408-2.76,1.408c-0.77,0-1.356-0.226-1.76-0.676c-0.404-0.451-0.605-1.065-0.605-1.845
				c0-0.667,0.103-1.493,0.31-2.478C102.315,38.314,102.503,37.507,102.691,36.699z"/>
			<path d="M118.531,40.965h-5.195c0.094,1.042,0.713,1.563,1.858,1.563c0.807,0,1.628-0.183,2.464-0.549l-0.282,1.788
				c-0.873,0.272-1.765,0.408-2.675,0.408c-1.089,0-1.957-0.291-2.605-0.873c-0.685-0.61-1.028-1.45-1.028-2.52
				c0-1.314,0.432-2.37,1.295-3.168c0.826-0.77,1.901-1.155,3.225-1.155c0.995,0,1.762,0.272,2.302,0.816
				c0.54,0.545,0.81,1.314,0.81,2.31C118.7,39.999,118.644,40.458,118.531,40.965z M116.602,39.572
				c0.019-0.141,0.028-0.253,0.028-0.338c0-0.395-0.113-0.711-0.338-0.951c-0.226-0.239-0.535-0.359-0.93-0.359
				c-0.432,0-0.802,0.174-1.112,0.521c-0.272,0.291-0.469,0.667-0.591,1.126H116.602z"/>
		</g>
	</g>
	<g>
		<g>
			<g>
				<rect x="182.097" y="43.93" class="st2" width="20.166" height="12.36"/>
			</g>
		</g>
		<path class="st3" d="M192.181,44.577c-0.146,0.271-0.477,0.66-1.031,1.356c-0.643,0.802-0.533,1.874-0.225,2.507
			c0.348,0.73,0.553,1.34,0.711,1.912c0.221,0.836,0.074,1.955,0.09,1.854h-0.561c0-1.365-0.424-2.648-1.453-3.217
			c-1.461-0.812-2.904,0.594-2.445,2.053c0.242,0.766,0.674,1.025,0.793,1.025c0,0-0.199-0.844,0.412-1.275
			c0.572-0.404,1.281-0.158,1.607,0.324c0.312,0.459,0.361,1.09,0.361,1.09h-1.051v0.775h2.113c0,0-0.059,1.098-1.213,0.988
			c0,0,0.143,0.869,1.213,0.416c0,0-0.059,0.906,0.678,1.359l0,0l0,0c0.734-0.453,0.68-1.359,0.68-1.359
			c1.07,0.453,1.215-0.416,1.215-0.416c-1.16,0.109-1.215-0.988-1.215-0.988h2.111v-0.775h-1.051c0,0,0.051-0.631,0.359-1.09
			c0.328-0.482,1.039-0.729,1.611-0.324c0.609,0.432,0.412,1.275,0.412,1.275c0.121,0,0.549-0.26,0.791-1.025
			c0.459-1.459-0.984-2.865-2.445-2.053c-1.027,0.568-1.453,1.852-1.453,3.217h-0.559c0.014,0.102-0.133-1.018,0.09-1.854
			c0.156-0.572,0.361-1.182,0.709-1.912c0.309-0.633,0.42-1.705-0.225-2.507C192.66,45.237,192.33,44.848,192.181,44.577z"/>
		<g>
			<g>
				<rect x="208.138" y="43.93" class="st2" width="20.172" height="12.36"/>
			</g>
		</g>
		<path class="st3" d="M218.222,44.577c-0.15,0.271-0.477,0.66-1.033,1.356c-0.646,0.802-0.531,1.874-0.225,2.507
			c0.35,0.73,0.549,1.34,0.709,1.912c0.223,0.836,0.076,1.955,0.094,1.854h-0.561c0-1.365-0.424-2.648-1.453-3.217
			c-1.463-0.812-2.906,0.594-2.447,2.053c0.242,0.766,0.672,1.025,0.795,1.025c0,0-0.201-0.844,0.41-1.275
			c0.57-0.404,1.279-0.158,1.607,0.324c0.312,0.459,0.361,1.09,0.361,1.09h-1.051v0.775h2.113c0,0-0.059,1.098-1.213,0.988
			c0,0,0.139,0.869,1.213,0.416c0,0-0.059,0.906,0.68,1.359l0,0l0,0c0.73-0.453,0.674-1.359,0.674-1.359
			c1.076,0.453,1.219-0.416,1.219-0.416c-1.162,0.109-1.219-0.988-1.219-0.988h2.117v-0.775h-1.055c0,0,0.053-0.631,0.361-1.09
			c0.33-0.482,1.041-0.729,1.615-0.324c0.604,0.432,0.41,1.275,0.41,1.275c0.119,0,0.547-0.26,0.787-1.025
			c0.457-1.459-0.988-2.865-2.447-2.053c-1.025,0.568-1.451,1.852-1.451,3.217h-0.557c0.016,0.102-0.133-1.018,0.09-1.854
			c0.156-0.572,0.361-1.182,0.709-1.912c0.305-0.633,0.418-1.705-0.225-2.507C218.701,45.237,218.367,44.848,218.222,44.577z"/>
	</g>
	<g>
		<g>
			<g>
				<rect x="182.097" y="62.175" class="st2" width="20.166" height="12.357"/>
			</g>
		</g>
		<path class="st3" d="M192.181,62.823c-0.146,0.27-0.477,0.66-1.031,1.356c-0.643,0.803-0.533,1.871-0.225,2.508
			c0.348,0.727,0.553,1.336,0.711,1.912c0.221,0.834,0.074,1.951,0.09,1.85h-0.561c0-1.361-0.424-2.648-1.453-3.217
			c-1.461-0.812-2.904,0.598-2.445,2.057c0.242,0.762,0.674,1.023,0.793,1.023c0,0-0.199-0.844,0.412-1.277
			c0.572-0.4,1.281-0.158,1.607,0.324c0.312,0.461,0.361,1.09,0.361,1.09h-1.051v0.779l2.113-0.002c0,0-0.059,1.096-1.213,0.99
			c0,0,0.143,0.865,1.213,0.412c0,0-0.059,0.906,0.678,1.359l0,0l0,0c0.734-0.453,0.68-1.359,0.68-1.359
			c1.07,0.453,1.215-0.412,1.215-0.412c-1.16,0.105-1.215-0.99-1.215-0.99l2.111,0.002v-0.779h-1.051c0,0,0.051-0.629,0.359-1.09
			c0.328-0.482,1.039-0.725,1.611-0.324c0.609,0.434,0.412,1.277,0.412,1.277c0.121,0,0.549-0.262,0.791-1.023
			c0.459-1.459-0.984-2.869-2.445-2.057c-1.027,0.568-1.453,1.855-1.453,3.217h-0.559c0.014,0.102-0.133-1.016,0.09-1.85
			c0.156-0.576,0.361-1.186,0.709-1.912c0.309-0.637,0.42-1.705-0.225-2.508C192.66,63.483,192.33,63.093,192.181,62.823z"/>
		<g>
			<g>
				<rect x="208.138" y="62.175" class="st2" width="20.172" height="12.357"/>
			</g>
		</g>
		<path class="st3" d="M218.222,62.823c-0.15,0.27-0.477,0.66-1.033,1.356c-0.646,0.803-0.531,1.871-0.225,2.508
			c0.35,0.727,0.549,1.336,0.709,1.912c0.223,0.834,0.076,1.951,0.094,1.85h-0.561c0-1.361-0.424-2.648-1.453-3.217
			c-1.463-0.812-2.906,0.598-2.447,2.057c0.242,0.762,0.672,1.023,0.795,1.023c0,0-0.201-0.844,0.41-1.277
			c0.57-0.4,1.279-0.158,1.607,0.324c0.312,0.461,0.361,1.09,0.361,1.09h-1.051v0.779l2.113-0.002c0,0-0.059,1.096-1.213,0.99
			c0,0,0.139,0.865,1.213,0.412c0,0-0.059,0.906,0.68,1.359l0,0l0,0c0.73-0.453,0.674-1.359,0.674-1.359
			c1.076,0.453,1.219-0.412,1.219-0.412c-1.162,0.105-1.219-0.99-1.219-0.99l2.117,0.002v-0.779h-1.055c0,0,0.053-0.629,0.361-1.09
			c0.33-0.482,1.041-0.725,1.615-0.324c0.604,0.434,0.41,1.277,0.41,1.277c0.119,0,0.547-0.262,0.787-1.023
			c0.457-1.459-0.988-2.869-2.447-2.057c-1.025,0.568-1.451,1.855-1.451,3.217h-0.557c0.016,0.102-0.133-1.016,0.09-1.85
			c0.156-0.576,0.361-1.186,0.709-1.912c0.305-0.637,0.418-1.705-0.225-2.508C218.701,63.483,218.367,63.093,218.222,62.823z"/>
	</g>
</g>
</svg>
