<svg id="Logos" xmlns="http://www.w3.org/2000/svg" viewBox="0 0 792 612"><defs><style>.cls-1{fill:#fff;}</style></defs><title>UnitedCTF_Logo</title><path class="cls-1" d="M171,325.51q-10.26,1.94-16.75-1.92t-8.21-12.95a52.73,52.73,0,0,1-.73-11.49l2-50.2,12.18-2.3-2.07,51.65a43.59,43.59,0,0,0,.59,9q1.74,9.19,12,7.25,6.09-1.15,8.89-5.39t3.24-13.62L184.34,242l12.18-2.31-2.25,56Q193.75,308.7,188,316T171,325.51Z"/><path class="cls-1" d="M207.5,259.05l11.12-2.1-0.26,6.8a24.06,24.06,0,0,1,6.06-7.46,18.11,18.11,0,0,1,8.09-3.75q5.45-1,9.21,1.58a12,12,0,0,1,4.79,8.06,33,33,0,0,1,.25,7.15l-1.59,40.16-11.33,2.14,1.54-38.71a33.72,33.72,0,0,0-.11-5.85q-1-5.24-6.33-4.23a12.54,12.54,0,0,0-7.46,4.73,14.48,14.48,0,0,0-3.41,8.62l-1.54,38.71-11.33,2.14Z"/><path class="cls-1" d="M259.23,249.27l11.33-2.14-2.31,58-11.33,2.14Zm0.57-21.58,11.76-2.22L271,237.4l-11.76,2.22Z"/><path class="cls-1" d="M297.32,300.84q-5.88,1.11-9.58-1.18t-4.69-7.53a23.67,23.67,0,0,1-.36-4q0-2.26.15-8.28l1-26.21L277,255l0.37-9.15,6.84-1.29,0.59-15.61,11.33-2.14-0.59,15.61,10.47-2-0.37,9.15-10.47,2-1,26.66a58,58,0,0,0,.09,9.84q0.71,3.74,4.56,3a16.49,16.49,0,0,0,4.75-1.79l3,7.73A22.55,22.55,0,0,1,297.32,300.84Z"/><path class="cls-1" d="M331,295q-8.12,1.54-13.2-2.21T311,280.1a58.94,58.94,0,0,1-.78-13.47q0.68-14,6-22.45A21.29,21.29,0,0,1,330.73,234q8-1.52,12.94,2t6.5,11.83a53.16,53.16,0,0,1,.51,12.64l-0.16,3.24-29.28,5.54a44.92,44.92,0,0,0,.66,8.73q0.89,4.7,3,6.85a5.58,5.58,0,0,0,5.33,1.54,9.05,9.05,0,0,0,5.72-3.41,18.08,18.08,0,0,0,3-7.87l10.9-2.06Q347.45,291.92,331,295Zm9-37.24a43,43,0,0,0-.55-8.75q-0.77-4.06-2.56-5.66a5.34,5.34,0,0,0-4.79-1,9.69,9.69,0,0,0-6.9,5.35q-2.42,4.5-3.36,13.53Z"/><path class="cls-1" d="M374.59,286.78a12.44,12.44,0,0,1-10.77-2.5q-4.46-3.69-5.92-11.39a64.13,64.13,0,0,1-.81-14.24q1.1-29.88,17.88-33.05,8.66-1.64,13.53,6l1.15-28.45L401,201l-3.2,79.65-11.12,2.1,0.24-6.36Q382.29,285.33,374.59,286.78Zm2.88-10q4.38-.83,7-6T387.45,257l0.21-5.35a45.1,45.1,0,0,0-.58-10.08,10.16,10.16,0,0,0-3-6,6,6,0,0,0-5.29-1.32q-4.7.89-6.89,6t-2.8,16.53a52.77,52.77,0,0,0,.66,12.83q0.83,4.38,2.65,6.09A5.45,5.45,0,0,0,377.47,276.83Z"/><path class="cls-1" d="M480.63,314q-11.57,2-18.86-3.3t-9.43-17.45a70.8,70.8,0,0,1-.93-12.15,99.14,99.14,0,0,1,.92-13.58q2.24-16.08,9.63-25.23a31.29,31.29,0,0,1,19.6-11.3q11.35-2,18.57,3.19T509.41,251q0.51,2.89.75,6.16l-20.85,5.78q-0.27-4-.63-6.08-0.68-3.86-2.22-5.41a4.5,4.5,0,0,0-4.22-1.08q-4,.7-6.07,5t-3.05,14q-1,11.78.23,18.85,0.68,3.86,2.37,5.27t4.79,0.87q7.71-1.36,9-15.61l20.35-3.59q-1.26,16.68-8.68,26.55T480.63,314Z"/><path class="cls-1" d="M528.3,244.14l-15.85,2.8,1-19.61,52.7-9.29-1,19.61-15.85,2.8-3.23,60-21,3.7Z"/><path class="cls-1" d="M571,217.18l44.46-7.84-1,18.52L590.82,232,590,246.85,612.08,243l-1,18.52-22,3.87-1.51,27.77-20.78,3.66Z"/><path class="cls-1" d="M647.5,248.39l30.17-90.69L436.94,200.24v-47L108.94,215v161L353.2,330.19,354,376l329.39-58.23ZM436.65,299.92l-86.39,16-227.32,42.6V227l299-56.5v47l233.33-41.2-23.67,72.78,30.78,57.68L391,354.85Z"/><polygon class="cls-1" points="111.27 390.57 125.77 387.83 125.77 458.73 111.27 458.73 111.27 390.57"/><polygon class="cls-1" points="125.77 197.77 111.27 200.52 111.27 174.6 125.77 174.6 125.77 197.77"/></svg>