<svg id="Logos" xmlns="http://www.w3.org/2000/svg" viewBox="0 0 792 612"><title>UnitedCTF_Logo</title><path d="M171.17,325.51q-10.26,1.94-16.75-1.92t-8.21-12.95a52.73,52.73,0,0,1-.73-11.49l2-50.2,12.18-2.3-2.08,51.65a43.64,43.64,0,0,0,.59,9q1.74,9.19,12,7.25,6.09-1.15,8.89-5.39t3.24-13.62L184.48,242l12.18-2.3-2.25,56q-0.52,13-6.27,20.39T171.17,325.51Z"/><path d="M207.64,259.05l11.12-2.1-0.26,6.8a24.06,24.06,0,0,1,6.06-7.46,18.1,18.1,0,0,1,8.09-3.75q5.45-1,9.21,1.58a12,12,0,0,1,4.79,8.06,33,33,0,0,1,.25,7.15L245.3,309.5,234,311.64l1.53-38.7a33.64,33.64,0,0,0-.11-5.85q-1-5.24-6.33-4.22a12.53,12.53,0,0,0-7.46,4.73,14.48,14.48,0,0,0-3.41,8.62l-1.53,38.7-11.33,2.14Z"/><path d="M259.37,249.27l11.33-2.14-2.31,58-11.33,2.14Zm0.57-21.58,11.76-2.22-0.51,11.94-11.76,2.22Z"/><path d="M297.47,300.85q-5.88,1.11-9.58-1.18t-4.69-7.53a23.8,23.8,0,0,1-.36-4q0-2.26.15-8.28l1-26.21L277.17,255l0.37-9.15,6.84-1.29L285,228.93l11.33-2.14-0.59,15.61,10.47-2-0.37,9.15-10.47,2-1,26.66a57.86,57.86,0,0,0,.09,9.84q0.71,3.74,4.56,3a16.5,16.5,0,0,0,4.75-1.79l3,7.73A22.55,22.55,0,0,1,297.47,300.85Z"/><path d="M331.13,295q-8.12,1.54-13.2-2.21t-6.78-12.72a58.93,58.93,0,0,1-.78-13.47q0.68-14,6-22.45A21.29,21.29,0,0,1,330.87,234q8-1.52,12.94,2t6.5,11.83a53.16,53.16,0,0,1,.51,12.63l-0.16,3.24-29.29,5.54a44.92,44.92,0,0,0,.66,8.73q0.89,4.71,3,6.85a5.58,5.58,0,0,0,5.33,1.54,9,9,0,0,0,5.72-3.41,18.07,18.07,0,0,0,3-7.87L350,273Q347.59,291.92,331.13,295Zm9-37.24a42.88,42.88,0,0,0-.55-8.75q-0.77-4.06-2.56-5.66a5.34,5.34,0,0,0-4.79-1,9.68,9.68,0,0,0-6.9,5.35q-2.42,4.5-3.36,13.53Z"/><path d="M374.74,286.78a12.44,12.44,0,0,1-10.77-2.5q-4.46-3.69-5.92-11.39a64.13,64.13,0,0,1-.81-14.24q1.1-29.87,17.88-33.05,8.66-1.64,13.53,6l1.15-28.45L401.12,201l-3.2,79.65-11.12,2.1,0.24-6.35Q382.43,285.33,374.74,286.78Zm2.88-10q4.38-.83,7-6T387.59,257l0.21-5.35a45.16,45.16,0,0,0-.58-10.08,10.16,10.16,0,0,0-3-6,6,6,0,0,0-5.29-1.33q-4.71.89-6.89,6t-2.8,16.52a52.77,52.77,0,0,0,.66,12.83q0.83,4.38,2.65,6.09A5.46,5.46,0,0,0,377.61,276.83Z"/><path d="M480.78,314q-11.57,2-18.86-3.3t-9.43-17.45a70.63,70.63,0,0,1-.93-12.15,99,99,0,0,1,.92-13.58q2.24-16.08,9.63-25.23a31.28,31.28,0,0,1,19.6-11.3q11.35-2,18.57,3.19T509.55,251q0.51,2.89.76,6.16l-20.85,5.77q-0.27-4-.63-6.08-0.68-3.86-2.22-5.41a4.5,4.5,0,0,0-4.22-1.08q-4,.7-6.07,5t-3.05,14q-1,11.78.23,18.85,0.68,3.86,2.37,5.27t4.79,0.87q7.71-1.36,9-15.61L510,275.24q-1.26,16.68-8.68,26.55T480.78,314Z"/><path d="M528.45,244.14l-15.85,2.79,1-19.61L566.26,218l-1,19.61-15.85,2.79-3.23,60-21,3.7Z"/><path d="M571.12,217.18l44.46-7.84-1,18.52L591,232l-0.81,14.83L612.22,243l-1,18.52-22,3.87-1.51,27.77-20.78,3.66Z"/><path d="M647.47,248.39l30.18-90.69L436.94,200.24v-47L108.94,215v161l244.25-45.87L354,376l329.38-58.23ZM436.62,299.92l-86.37,16-227.31,42.6V227l299-56.5v47l233.31-41.2-23.68,72.78,30.77,57.68L391,354.85Z"/><polygon points="111.41 390.57 125.92 387.83 125.92 458.73 111.41 458.73 111.41 390.57"/><polygon points="125.92 197.77 111.41 200.52 111.41 174.6 125.92 174.6 125.92 197.77"/></svg>